<svg width="50" height="34" viewBox="0 0 50 34" fill="none" xmlns="http://www.w3.org/2000/svg">
<path d="M48.1641 3.23252V7.82275L42.7676 11.4239L37.3289 15.0544C37.3395 15.0028 37.3488 14.9524 37.3594 14.9021C37.3664 14.8634 37.3746 14.8247 37.3816 14.786C37.391 14.7356 37.3992 14.6853 37.4086 14.6349C37.4156 14.5927 37.4238 14.5505 37.4297 14.5083C37.4379 14.4603 37.4437 14.4134 37.4508 14.3653C37.4566 14.3208 37.4637 14.2763 37.4695 14.2329C37.4754 14.186 37.4813 14.1403 37.4859 14.0935C37.4918 14.0489 37.4977 14.0032 37.5023 13.9575C37.507 13.9118 37.5105 13.8661 37.5141 13.8192C37.5176 13.7747 37.5223 13.7302 37.5258 13.6856C37.5293 13.6353 37.5316 13.586 37.5352 13.5368C37.5375 13.4958 37.5398 13.4548 37.5422 13.4149C37.5445 13.3599 37.5457 13.3048 37.5469 13.2497C37.548 13.2157 37.5492 13.1806 37.5504 13.1454C37.5516 13.0563 37.5516 12.9661 37.5504 12.8782C37.5492 12.8278 37.5457 12.7786 37.5445 12.7282C37.4801 10.7794 36.6797 8.96299 35.277 7.6001C33.8391 6.20205 31.9395 5.44736 29.9367 5.47666C27.9492 5.50361 26.0918 6.30283 24.7137 7.69971C23.2969 6.34268 21.423 5.59619 19.4297 5.62432C17.4246 5.65127 15.5496 6.45869 14.1527 7.89775C13.977 8.07705 13.8129 8.26338 13.6582 8.45674C12.5777 9.81143 12.0035 11.4825 12.0281 13.2368C12.0305 13.3833 12.0363 13.5298 12.0457 13.6774C12.0492 13.7255 12.0539 13.7735 12.0574 13.8216C12.0656 13.9224 12.0738 14.0231 12.0855 14.1239C12.0914 14.1802 12.0996 14.2364 12.1066 14.2938C12.1184 14.3876 12.1312 14.4813 12.1465 14.5763C12.1559 14.6349 12.1652 14.6935 12.1758 14.7521C12.1828 14.7907 12.1875 14.8282 12.1945 14.8669L1.64062 7.82275V3.23252C1.64062 2.35479 2.35547 1.64111 3.2332 1.64111H38.666C39.0984 1.64111 39.4535 1.30479 39.4828 0.879395C39.4852 0.859473 39.4863 0.840723 39.4863 0.820801C39.4863 0.800879 39.4852 0.782129 39.4828 0.762207H40.8574C40.8562 0.782129 40.8551 0.800879 40.8551 0.820801C40.8551 0.840723 40.8562 0.859473 40.8574 0.879395C40.8598 0.913379 40.8645 0.947363 40.8715 0.980176C40.882 1.03291 40.8973 1.08447 40.9172 1.13369C40.9383 1.18291 40.9641 1.23096 40.9934 1.27549C41.0227 1.32002 41.0578 1.36221 41.0953 1.40088C41.1328 1.43838 41.175 1.47236 41.2195 1.50166C41.2641 1.53213 41.3121 1.55674 41.3613 1.57783C41.4105 1.59775 41.4621 1.61416 41.5148 1.62471C41.5676 1.63525 41.6215 1.64111 41.6754 1.64111C41.7281 1.64111 41.782 1.63525 41.8359 1.62471C41.8875 1.61416 41.9391 1.59775 41.9895 1.57783C42.0387 1.55674 42.0855 1.53213 42.1301 1.50166C42.1758 1.47236 42.2168 1.43838 42.2555 1.40088C42.293 1.36221 42.327 1.32002 42.3574 1.27549C42.3867 1.23096 42.4125 1.18291 42.4324 1.13369C42.4535 1.08447 42.4687 1.03291 42.4793 0.980176C42.4863 0.947363 42.4898 0.913379 42.4922 0.879395C42.4945 0.859473 42.4957 0.840723 42.4957 0.820801C42.4957 0.800879 42.4945 0.782129 42.4922 0.762207H43.418C43.4168 0.782129 43.4156 0.800879 43.4156 0.820801C43.4156 0.840723 43.4168 0.859473 43.4191 0.879395C43.4484 1.30479 43.8023 1.64111 44.2359 1.64111H46.5715C47.4492 1.64111 48.1641 2.35479 48.1641 3.23252Z" fill="#FFDE83"/>
<path d="M15.3562 21.3215L13.9113 24.2113L9.79453 32.4473C9.79336 32.4484 9.79219 32.4508 9.79102 32.4531C9.77813 32.4801 9.76641 32.5082 9.75703 32.5352C9.75352 32.5445 9.75117 32.5539 9.74766 32.5621C9.74063 32.5855 9.73477 32.6078 9.72891 32.6313C9.72773 32.6395 9.72539 32.6477 9.72305 32.657C9.71836 32.6816 9.71484 32.7086 9.7125 32.7332C9.7125 32.7344 9.7125 32.7344 9.7125 32.7355C9.71133 32.7414 9.71133 32.7461 9.71016 32.7508C9.70898 32.7637 9.70898 32.7777 9.70898 32.7918C9.70781 32.8105 9.70781 32.8293 9.70898 32.848C9.70898 32.8492 9.70898 32.8492 9.70898 32.8504H7.43672C7.43789 32.8375 7.43906 32.8258 7.43906 32.8129C7.43906 32.8059 7.43906 32.7988 7.43789 32.7918C7.43789 32.7719 7.43555 32.7531 7.4332 32.7332C7.39336 32.3184 7.04414 31.9926 6.61875 31.9926H3.2332C2.35547 31.9926 1.64062 31.2777 1.64062 30.4V9.79492L12.9645 17.3523C12.9668 17.3594 12.9691 17.3652 12.9727 17.3711C13.0324 17.5105 13.0957 17.6512 13.1625 17.793C13.1754 17.8211 13.1895 17.8504 13.2035 17.8785C13.2703 18.0191 13.3395 18.1586 13.4121 18.3004C13.425 18.325 13.4379 18.3496 13.4508 18.3754C13.527 18.5219 13.6055 18.6684 13.6887 18.816C13.6898 18.8172 13.6898 18.8195 13.691 18.8207C13.7754 18.9707 13.8621 19.1195 13.9523 19.2695C13.9664 19.2941 13.9816 19.3187 13.9957 19.3434C14.0836 19.4875 14.1738 19.6316 14.2664 19.7758C14.284 19.8027 14.3016 19.8309 14.3191 19.8578C14.4141 20.0055 14.5125 20.1531 14.6133 20.3008C14.6238 20.316 14.6355 20.3324 14.6461 20.3477C14.748 20.4941 14.8512 20.6406 14.9578 20.7883C14.9672 20.8012 14.9766 20.8152 14.9871 20.8293C15.0961 20.9781 15.2086 21.1293 15.3234 21.2793C15.3352 21.2934 15.3445 21.3074 15.3562 21.3215Z" fill="#FFBE83"/>
<path d="M37.9489 31.9929H11.856L16.4966 22.7081C16.5071 22.7198 16.5188 22.7327 16.5294 22.7444C16.6349 22.8651 16.7427 22.9858 16.8528 23.1065C16.8728 23.1288 16.8938 23.1511 16.9138 23.1733C17.011 23.28 17.1106 23.3878 17.2103 23.4944C17.236 23.5214 17.2606 23.5483 17.2864 23.5753C17.4013 23.6972 17.5173 23.819 17.6356 23.9409C17.6614 23.9679 17.6884 23.9948 17.7142 24.0218C17.8196 24.1296 17.9251 24.2374 18.0329 24.3452L18.1009 24.4132C18.2251 24.5374 18.3505 24.6604 18.4782 24.7835C18.5075 24.8128 18.538 24.8421 18.5673 24.8702C18.6868 24.9851 18.8063 25.1011 18.9294 25.2159C18.9435 25.2288 18.9575 25.2429 18.9716 25.2569C19.1052 25.3823 19.2423 25.5077 19.3794 25.6343C19.411 25.6636 19.4427 25.6929 19.4743 25.7222C19.6149 25.8499 19.7556 25.9765 19.8985 26.1054C19.8997 26.1054 19.8997 26.1054 19.8997 26.1054C19.9208 26.1241 19.9431 26.1429 19.9665 26.1616C20.0356 26.2214 20.1071 26.2776 20.1774 26.3327L20.2231 26.369C20.3274 26.4522 20.4364 26.539 20.5595 26.6269C20.6521 26.6913 20.747 26.7534 20.8489 26.819L20.8747 26.8343C20.9767 26.8999 21.0833 26.9655 21.1946 27.0288C21.2919 27.0839 21.3915 27.1366 21.4806 27.1823C21.6153 27.2515 21.7478 27.3136 21.8731 27.3687C21.9634 27.4085 22.0524 27.446 22.1544 27.487C22.2821 27.5362 22.4192 27.5854 22.5751 27.6358L22.6278 27.6522C22.6981 27.6757 22.7685 27.6979 22.8493 27.7214C23.0052 27.7647 23.1575 27.7999 23.2993 27.8315C23.304 27.8327 23.3075 27.8327 23.3122 27.8339C23.3345 27.8386 23.3579 27.8444 23.3813 27.8491C23.4399 27.862 23.4985 27.8749 23.5513 27.8843C23.7083 27.9136 23.8747 27.9358 24.0657 27.9569L24.1243 27.964C24.17 27.9698 24.2157 27.9757 24.2614 27.9804C24.2661 27.9815 24.2696 27.9815 24.2743 27.9815C24.3739 27.9897 24.4688 27.9956 24.5614 28.0003C24.579 28.0003 24.5978 28.0015 24.6153 28.0026C24.7021 28.0062 24.7864 28.0073 24.8685 28.0085H24.9903C24.995 28.0085 24.9997 28.0073 25.0044 28.0073C25.2341 28.0038 25.4696 27.9886 25.7286 27.9604C25.7767 27.9546 25.8235 27.9476 25.8716 27.9394C25.8892 27.937 25.9079 27.9335 25.9267 27.9312C26.0673 27.9124 26.2524 27.8843 26.4493 27.8433C26.5149 27.8292 26.5782 27.8128 26.6427 27.7964L26.6884 27.7847C26.8138 27.7542 26.979 27.7132 27.1513 27.6581C27.2228 27.6358 27.2931 27.6112 27.3634 27.5854L27.4185 27.5655C27.5708 27.5116 27.7056 27.4589 27.8263 27.4085C27.9224 27.3687 28.0173 27.3241 28.1122 27.2796C28.2364 27.221 28.3606 27.1565 28.4907 27.0851C28.5856 27.0335 28.6794 26.9808 28.7778 26.9222C28.8821 26.8589 28.9888 26.7897 29.1259 26.6948L29.1856 26.6538C29.2595 26.6034 29.3333 26.553 29.4048 26.4979C29.4376 26.4733 29.4681 26.4487 29.4985 26.4241C29.57 26.3679 29.6392 26.3116 29.7036 26.2565L29.7821 26.1909C29.8466 26.137 29.9099 26.0843 29.9696 26.0292C29.9802 26.0198 29.9954 26.0069 30.0118 25.9929C30.0235 25.9835 30.0353 25.9729 30.0481 25.9601C30.2286 25.7901 30.4044 25.6214 30.5778 25.4526C30.6282 25.4046 30.6763 25.3565 30.7255 25.3085C30.8521 25.1843 30.9763 25.0601 31.1005 24.9358C31.1509 24.8843 31.2024 24.8327 31.254 24.7812C31.3958 24.637 31.5353 24.4929 31.6735 24.3487C31.6958 24.3253 31.7192 24.3019 31.7415 24.2784C31.8997 24.112 32.0532 23.9468 32.2044 23.7827C32.2478 23.7358 32.2899 23.689 32.3321 23.6421C32.4423 23.5214 32.5513 23.3995 32.6579 23.28C32.7048 23.2261 32.7528 23.1722 32.7997 23.1183C32.9099 22.9917 33.0188 22.8651 33.1255 22.7397C33.1583 22.7011 33.1911 22.6624 33.2239 22.6237C33.2321 22.6132 33.2415 22.6038 33.2497 22.5933L37.9489 31.9929Z" fill="#FFDE83"/>
<path d="M34.8821 9.66152C34.6641 9.34629 34.4145 9.0498 34.1333 8.77676C34.0641 8.70879 33.9926 8.64316 33.9212 8.57988C33.879 8.54238 33.8368 8.5084 33.7934 8.47207C33.763 8.44746 33.7337 8.42051 33.702 8.3959C33.6399 8.34551 33.5755 8.29746 33.5122 8.25059C33.5005 8.24121 33.4887 8.23301 33.477 8.22363C32.7915 7.72676 32.0122 7.38809 31.1848 7.22637C31.1813 7.2252 31.179 7.2252 31.1755 7.22402C31.0934 7.20879 31.0102 7.19473 30.927 7.18184C30.9153 7.18066 30.9024 7.17832 30.8895 7.17598C30.8157 7.16543 30.7419 7.15723 30.6669 7.14902C30.6446 7.14668 30.6223 7.14434 30.5989 7.14199C30.5344 7.13613 30.47 7.13262 30.4055 7.12793C30.3716 7.12559 30.3376 7.12324 30.3036 7.12207C30.2497 7.11973 30.1946 7.11973 30.1395 7.11856C30.0798 7.11738 30.02 7.11621 29.9602 7.11621C28.1544 7.14199 26.4856 7.9834 25.3829 9.42598C25.2305 9.62519 24.9938 9.74355 24.743 9.74707C24.7114 9.74824 24.6809 9.74707 24.6505 9.74355C24.436 9.72246 24.2321 9.61465 24.0938 9.44355C22.9571 8.04082 21.2825 7.24863 19.4848 7.26504C19.4743 7.26504 19.4637 7.26387 19.4532 7.26387C18.3751 7.2791 17.3462 7.58262 16.4532 8.13574C16.0477 8.38652 15.6704 8.69004 15.3282 9.04043C14.236 10.1643 13.6466 11.6467 13.6688 13.2146C13.6841 14.2611 13.9243 15.3662 14.3848 16.4994C14.6262 17.0912 14.9286 17.6959 15.2895 18.31C15.361 18.433 15.4372 18.5561 15.5134 18.6791C15.5614 18.7564 15.6106 18.8338 15.6598 18.9111C15.9282 19.3271 16.2212 19.7467 16.5399 20.1697C16.6759 20.349 16.8165 20.5295 16.9618 20.71C16.9618 20.7111 16.9618 20.7111 16.963 20.7111C17.1774 20.9795 17.4059 21.2514 17.6426 21.5232C18.5907 22.6143 19.7075 23.7369 20.9825 24.8725C21.0048 24.89 21.0247 24.9064 21.0446 24.924C21.0926 24.9662 21.1419 25.0037 21.1911 25.0424L21.2415 25.0822C21.3376 25.1596 21.4243 25.2287 21.5075 25.2873C21.5778 25.3377 21.654 25.3857 21.7301 25.435L21.7489 25.4467C21.838 25.5029 21.9212 25.5557 22.0009 25.6002C22.0782 25.6436 22.1509 25.6822 22.2235 25.7186C22.3348 25.776 22.4344 25.824 22.5282 25.8639C22.6055 25.8979 22.6805 25.9307 22.7567 25.9611C22.8458 25.9951 22.9548 26.0338 23.0801 26.0748L23.1376 26.0936C23.1903 26.11 23.243 26.1275 23.2958 26.1428C23.4048 26.1732 23.5301 26.2014 23.6497 26.2283C23.6801 26.2342 23.7094 26.2412 23.7399 26.2482C23.7739 26.2553 23.8067 26.2635 23.8407 26.2693C23.9614 26.2916 24.0891 26.3092 24.2485 26.3256C24.286 26.3303 24.313 26.3338 24.3411 26.3373C24.3657 26.3408 24.3903 26.3443 24.4149 26.3467C24.6188 26.3631 24.8028 26.3701 24.9739 26.3678H24.9868C25.1555 26.3643 25.3419 26.3525 25.5458 26.3303C25.5645 26.3279 25.5868 26.3232 25.6091 26.3197C25.6407 26.315 25.6723 26.3104 25.704 26.3057C25.8259 26.2893 25.9688 26.2682 26.1083 26.2389C26.1434 26.2307 26.1868 26.2201 26.2301 26.2084L26.2946 26.192C26.4024 26.1662 26.5325 26.1334 26.6544 26.0947C26.7059 26.0783 26.7587 26.0596 26.8114 26.0408L26.8688 26.0197C26.9884 25.9775 27.095 25.9365 27.1911 25.8955C27.2684 25.8627 27.3399 25.8299 27.4114 25.7959C27.504 25.7525 27.6001 25.7033 27.7032 25.6471C27.7794 25.6049 27.8567 25.5615 27.9317 25.5158C28.0044 25.4725 28.0876 25.4186 28.1942 25.3447L28.2587 25.3002C28.3091 25.2662 28.3606 25.2311 28.4087 25.1936C28.4134 25.1912 28.418 25.1877 28.4216 25.1842C28.4919 25.1326 28.5669 25.0693 28.6477 25.0014L28.7298 24.9322C28.7766 24.8924 28.8235 24.8537 28.868 24.8127C28.8903 24.7916 28.9114 24.774 28.9325 24.7564C30.4477 23.3279 31.7344 21.924 32.7575 20.5822C33.6493 19.415 34.3583 18.2736 34.8727 17.1814C34.9466 17.0256 35.0157 16.8697 35.0813 16.7162C35.0813 16.7162 35.0813 16.7162 35.0813 16.715C35.1165 16.6318 35.1505 16.5498 35.1844 16.4666C35.6134 15.3943 35.8536 14.3561 35.9016 13.3693C35.9051 13.2873 35.9087 13.2076 35.9098 13.1268C35.911 13.0518 35.911 12.9756 35.9098 12.9006C35.8934 11.7252 35.5348 10.6072 34.8821 9.66152ZM19.5434 11.2482H19.5012C19.0055 11.2553 18.5356 11.458 18.1852 11.8178C17.8348 12.1787 17.6462 12.6545 17.6532 13.1572C17.6591 13.6107 17.2969 13.9834 16.8446 13.9893H16.8329C16.3852 13.9893 16.0184 13.6295 16.0126 13.1807C15.9997 12.2396 16.3536 11.349 17.0098 10.674C17.6649 10.0002 18.545 9.62051 19.486 9.60762H19.5387C19.9899 9.60762 20.3567 9.97207 20.3591 10.4232C20.3614 10.8768 19.9958 11.2459 19.5434 11.2482Z" fill="#F57070"/>
<path d="M48.164 9.79492V30.4C48.164 31.2777 47.4492 31.9926 46.5714 31.9926H39.7839L37.0816 26.5891L34.3699 21.1656C34.3875 21.1422 34.4027 21.1188 34.4203 21.0953C34.4648 21.0344 34.5082 20.9734 34.5515 20.9125C34.6277 20.8047 34.7039 20.6969 34.7777 20.5902C34.8222 20.5258 34.8656 20.4625 34.9078 20.398C34.9792 20.2926 35.0496 20.1871 35.1175 20.0805C35.1585 20.0195 35.1984 19.9574 35.2382 19.8953C35.3097 19.7828 35.3789 19.6703 35.4468 19.5578C35.4796 19.5051 35.5124 19.4512 35.5441 19.3984C35.639 19.2402 35.7304 19.0832 35.8171 18.9262C35.8207 18.9203 35.8253 18.9133 35.8277 18.9074C35.9191 18.7445 36.0058 18.5828 36.089 18.4211C36.116 18.3695 36.1394 18.3191 36.1652 18.2676C36.2214 18.1574 36.2765 18.0461 36.3292 17.9359C36.3574 17.8773 36.3843 17.8176 36.4113 17.7578C36.4382 17.7004 36.4664 17.643 36.4921 17.5855L48.164 9.79492Z" fill="#FFBE83"/>
<path d="M16.8329 13.9891C16.8364 13.9891 16.8411 13.9891 16.8446 13.9891C17.2981 13.9832 17.6602 13.6105 17.6532 13.157C17.6461 12.6543 17.8348 12.1785 18.1864 11.8176C18.5368 11.4566 19.0067 11.2551 19.5024 11.248H19.5434C19.9969 11.2457 20.3614 10.8766 20.359 10.423C20.3567 9.97188 19.9899 9.60742 19.5387 9.60742C19.5375 9.60742 19.5352 9.60742 19.534 9.60742H19.486C18.545 9.62031 17.6649 10 17.0098 10.6738C16.3536 11.3488 15.9997 12.2395 16.0125 13.1805C16.0184 13.6293 16.3852 13.9891 16.8329 13.9891Z" fill="#48446D"/>
<path d="M46.5715 0.000488281H44.2359C43.8023 0.000488281 43.4484 0.335645 43.418 0.762207C43.4168 0.782129 43.4156 0.800879 43.4156 0.820801C43.4156 0.840723 43.4168 0.859473 43.4191 0.879395C43.4484 1.30479 43.8023 1.64111 44.2359 1.64111H46.5715C47.4492 1.64111 48.1641 2.35479 48.1641 3.23252V7.82275L42.7676 11.4239L37.3289 15.0544C37.3395 15.0028 37.3488 14.9524 37.3594 14.9021C37.3664 14.8634 37.3746 14.8247 37.3816 14.786C37.391 14.7356 37.3992 14.6853 37.4086 14.6349C37.4156 14.5927 37.4238 14.5505 37.4297 14.5083C37.4379 14.4603 37.4437 14.4134 37.4508 14.3653C37.4566 14.3208 37.4637 14.2763 37.4695 14.2329C37.4754 14.186 37.4813 14.1403 37.4859 14.0935C37.4918 14.0489 37.4977 14.0032 37.5023 13.9575C37.507 13.9118 37.5105 13.8661 37.5141 13.8192C37.5176 13.7747 37.5223 13.7302 37.5258 13.6856C37.5293 13.6353 37.5316 13.586 37.5352 13.5368C37.5375 13.4958 37.5398 13.4548 37.5422 13.4149C37.5445 13.3599 37.5457 13.3048 37.5469 13.2497C37.548 13.2157 37.5492 13.1806 37.5504 13.1454C37.5516 13.0563 37.5516 12.9661 37.5504 12.8782C37.5492 12.8278 37.5457 12.7786 37.5445 12.7282C37.4801 10.7794 36.6797 8.96299 35.277 7.6001C33.8391 6.20205 31.9395 5.44736 29.9367 5.47666C27.9492 5.50361 26.0918 6.30283 24.7137 7.69971C23.2969 6.34268 21.423 5.59619 19.4297 5.62432C17.4246 5.65127 15.5496 6.45869 14.1527 7.89775C13.977 8.07705 13.8129 8.26338 13.6582 8.45674C12.5777 9.81143 12.0035 11.4825 12.0281 13.2368C12.0305 13.3833 12.0363 13.5298 12.0457 13.6774C12.0492 13.7255 12.0539 13.7735 12.0574 13.8216C12.0656 13.9224 12.0738 14.0231 12.0855 14.1239C12.0914 14.1802 12.0996 14.2364 12.1066 14.2938C12.1184 14.3876 12.1312 14.4813 12.1465 14.5763C12.1559 14.6349 12.1652 14.6935 12.1758 14.7521C12.1828 14.7907 12.1875 14.8282 12.1945 14.8669L1.64062 7.82275V3.23252C1.64062 2.35479 2.35547 1.64111 3.2332 1.64111H38.666C39.0984 1.64111 39.4535 1.30479 39.4828 0.879395C39.4852 0.859473 39.4863 0.840723 39.4863 0.820801C39.4863 0.800879 39.4852 0.782129 39.4828 0.762207C39.4535 0.335645 39.0984 0.000488281 38.666 0.000488281H3.2332C1.45078 0.000488281 0 1.4501 0 3.23252V30.4001C0 32.1825 1.45078 33.6333 3.2332 33.6333H6.61875C7.0582 33.6333 7.41797 33.2864 7.43672 32.8505C7.43789 32.8376 7.43906 32.8259 7.43906 32.813C7.43906 32.806 7.43906 32.7989 7.43789 32.7919C7.43789 32.772 7.43555 32.7532 7.4332 32.7333C7.39336 32.3185 7.04414 31.9927 6.61875 31.9927H3.2332C2.35547 31.9927 1.64062 31.2778 1.64062 30.4001V9.79502L12.9645 17.3524C12.9668 17.3595 12.9691 17.3653 12.9727 17.3712C13.0324 17.5106 13.0957 17.6513 13.1625 17.7931C13.1754 17.8212 13.1895 17.8505 13.2035 17.8786C13.2703 18.0192 13.3395 18.1587 13.4121 18.3005C13.425 18.3251 13.4379 18.3497 13.4508 18.3755C13.527 18.522 13.6055 18.6685 13.6887 18.8161C13.6898 18.8173 13.6898 18.8196 13.691 18.8208C13.7754 18.9708 13.8621 19.1196 13.9523 19.2696C13.9664 19.2942 13.9816 19.3188 13.9957 19.3435C14.0836 19.4876 14.1738 19.6317 14.2664 19.7759C14.284 19.8028 14.3016 19.831 14.3191 19.8579C14.4141 20.0056 14.5125 20.1532 14.6133 20.3009C14.6238 20.3161 14.6355 20.3325 14.6461 20.3478C14.748 20.4942 14.8512 20.6407 14.9578 20.7884C14.9672 20.8013 14.9766 20.8153 14.9871 20.8294C15.0961 20.9782 15.2086 21.1294 15.3234 21.2794C15.3352 21.2935 15.3445 21.3075 15.3562 21.3216L13.9113 24.2114L9.79453 32.4474C9.79336 32.4485 9.79219 32.4509 9.79102 32.4532C9.77813 32.4802 9.76641 32.5083 9.75703 32.5353C9.75352 32.5446 9.75117 32.554 9.74766 32.5622C9.74063 32.5856 9.73477 32.6079 9.72891 32.6314C9.72773 32.6396 9.72539 32.6478 9.72305 32.6571C9.71836 32.6817 9.71484 32.7087 9.7125 32.7333C9.7125 32.7345 9.7125 32.7345 9.7125 32.7356C9.71133 32.7415 9.71133 32.7462 9.71016 32.7509C9.70898 32.7638 9.70898 32.7778 9.70898 32.7919C9.70781 32.8106 9.70781 32.8294 9.70898 32.8481C9.70898 32.8493 9.70898 32.8493 9.70898 32.8505C9.70898 32.854 9.70898 32.8575 9.71016 32.8599C9.71133 32.8868 9.71367 32.9138 9.71836 32.9407C9.71953 32.9501 9.72188 32.9595 9.72305 32.9677C9.72773 32.9911 9.73359 33.0146 9.73945 33.0368C9.7418 33.045 9.74414 33.0532 9.74648 33.0614C9.75586 33.0919 9.76758 33.1212 9.78047 33.1505C9.78164 33.1528 9.78281 33.1552 9.78398 33.1587C9.79687 33.1845 9.80977 33.2103 9.825 33.2349C9.82734 33.2384 9.82852 33.2419 9.83086 33.2454C9.8332 33.2489 9.83555 33.2524 9.83789 33.256C9.85195 33.2782 9.86719 33.2993 9.88359 33.3204C9.88828 33.3251 9.8918 33.331 9.89531 33.3356C9.93633 33.3849 9.98203 33.4294 10.0348 33.4681C10.0418 33.4739 10.0488 33.4786 10.057 33.4833C10.0746 33.4962 10.0934 33.5091 10.1133 33.5208C10.1227 33.5255 10.132 33.5314 10.1426 33.536C10.1484 33.5396 10.1543 33.5442 10.1613 33.5478C10.1719 33.5524 10.1836 33.5571 10.1953 33.5618C10.2082 33.5677 10.2211 33.5735 10.2352 33.5794C10.2551 33.5864 10.275 33.5923 10.2949 33.5981C10.3055 33.6017 10.3172 33.6064 10.3289 33.6087C10.3535 33.6146 10.3793 33.6192 10.4039 33.6239C10.4109 33.6251 10.4191 33.6263 10.4262 33.6274C10.4602 33.631 10.4941 33.6345 10.527 33.6345C10.5281 33.6345 10.5293 33.6333 10.5305 33.6333H46.5715C48.3539 33.6333 49.8047 32.1825 49.8047 30.4001V3.23252C49.8047 1.4501 48.3539 0.000488281 46.5715 0.000488281ZM15.2895 18.3099C14.9285 17.6958 14.6262 17.0911 14.3848 16.4993C13.9242 15.3661 13.684 14.261 13.6687 13.2146C13.6465 11.6466 14.2359 10.1642 15.3281 9.04033C15.6703 8.68994 16.0477 8.38643 16.4531 8.13564C17.3461 7.58252 18.375 7.279 19.4531 7.26377C19.4637 7.26377 19.4742 7.26494 19.4848 7.26494C21.2824 7.24854 22.957 8.04072 24.0938 9.44346C24.232 9.61455 24.4359 9.72236 24.6504 9.74346C24.6809 9.74697 24.7113 9.74814 24.743 9.74697C24.9937 9.74346 25.2305 9.6251 25.3828 9.42588C26.4855 7.9833 28.1543 7.1419 29.9602 7.11611C30.0199 7.11611 30.0797 7.11729 30.1395 7.11846C30.1945 7.11963 30.2496 7.11963 30.3035 7.12197C30.3375 7.12315 30.3715 7.12549 30.4055 7.12783C30.4699 7.13252 30.5344 7.13604 30.5988 7.1419C30.6223 7.14424 30.6445 7.14658 30.6668 7.14893C30.7418 7.15713 30.8156 7.16533 30.8895 7.17588C30.9023 7.17822 30.9152 7.18057 30.927 7.18174C31.0102 7.19463 31.0934 7.20869 31.1754 7.22393C31.1789 7.2251 31.1812 7.2251 31.1848 7.22627C32.0121 7.38799 32.7914 7.72666 33.477 8.22354C33.4887 8.23291 33.5004 8.24111 33.5121 8.25049C33.5754 8.29736 33.6398 8.34541 33.702 8.3958C33.7336 8.42041 33.7629 8.44736 33.7934 8.47197C33.8367 8.5083 33.8789 8.54229 33.9211 8.57979C33.9926 8.64307 34.0641 8.70869 34.1332 8.77666C34.4145 9.04971 34.6641 9.34619 34.882 9.66143C35.5348 10.6071 35.8934 11.7251 35.9098 12.9005C35.9109 12.9755 35.9109 13.0517 35.9098 13.1267C35.9086 13.2075 35.9051 13.2872 35.9016 13.3692C35.8535 14.356 35.6133 15.3942 35.1844 16.4665C35.1504 16.5497 35.1164 16.6317 35.0812 16.7149C35.0812 16.7161 35.0812 16.7161 35.0812 16.7161C35.0156 16.8696 34.9465 17.0255 34.8727 17.1813C34.3582 18.2735 33.6492 19.4149 32.7574 20.5821C31.7344 21.9239 30.4477 23.3278 28.9324 24.7563C28.9113 24.7739 28.8902 24.7915 28.868 24.8126C28.8234 24.8536 28.7766 24.8923 28.7297 24.9321L28.6477 25.0013C28.5668 25.0692 28.4918 25.1325 28.4215 25.1841C28.418 25.1876 28.4133 25.1911 28.4086 25.1935C28.3605 25.231 28.309 25.2661 28.2586 25.3001L28.1941 25.3446C28.0875 25.4185 28.0043 25.4724 27.9316 25.5157C27.8566 25.5614 27.7793 25.6048 27.7031 25.647C27.6 25.7032 27.5039 25.7524 27.4113 25.7958C27.3398 25.8298 27.2684 25.8626 27.191 25.8954C27.0949 25.9364 26.9883 25.9774 26.8687 26.0196L26.8113 26.0407C26.7586 26.0595 26.7059 26.0782 26.6543 26.0946C26.5324 26.1333 26.4023 26.1661 26.2945 26.1919L26.2301 26.2083C26.1867 26.22 26.1434 26.2306 26.1082 26.2388C25.9688 26.2681 25.8258 26.2892 25.7039 26.3056C25.6723 26.3103 25.6406 26.3149 25.609 26.3196C25.5867 26.3231 25.5645 26.3278 25.5457 26.3302C25.3418 26.3524 25.1555 26.3642 24.9867 26.3677H24.9738C24.8027 26.37 24.6187 26.363 24.4148 26.3466C24.3902 26.3442 24.3656 26.3407 24.341 26.3372C24.3129 26.3337 24.2859 26.3302 24.2484 26.3255C24.0891 26.3091 23.9613 26.2915 23.8406 26.2692C23.8066 26.2634 23.7738 26.2552 23.7398 26.2481C23.7094 26.2411 23.6801 26.2341 23.6496 26.2282C23.5301 26.2013 23.4047 26.1731 23.2957 26.1427C23.243 26.1274 23.1902 26.1099 23.1375 26.0935L23.0801 26.0747C22.9547 26.0337 22.8457 25.995 22.7566 25.961C22.6805 25.9306 22.6055 25.8978 22.5281 25.8638C22.4344 25.8239 22.3348 25.7759 22.2234 25.7185C22.1508 25.6821 22.0781 25.6435 22.0008 25.6001C21.9211 25.5556 21.8379 25.5028 21.7488 25.4466L21.7301 25.4349C21.6539 25.3856 21.5777 25.3376 21.5074 25.2872C21.4242 25.2286 21.3375 25.1595 21.2414 25.0821L21.191 25.0423C21.1418 25.0036 21.0926 24.9661 21.0445 24.9239C21.0246 24.9063 21.0047 24.8899 20.9824 24.8724C19.7074 23.7368 18.5906 22.6142 17.6426 21.5231C17.4059 21.2513 17.1773 20.9794 16.9629 20.711C16.9617 20.711 16.9617 20.711 16.9617 20.7099C16.8164 20.5294 16.6758 20.3489 16.5398 20.1696C16.2211 19.7466 15.9281 19.3271 15.6598 18.911C15.6105 18.8337 15.5613 18.7564 15.5133 18.679C15.4371 18.556 15.3609 18.4329 15.2895 18.3099ZM11.8559 31.9927L16.4965 22.7079C16.507 22.7196 16.5188 22.7325 16.5293 22.7442C16.6348 22.8649 16.7426 22.9856 16.8527 23.1064C16.8727 23.1286 16.8938 23.1509 16.9137 23.1731C17.0109 23.2798 17.1105 23.3876 17.2102 23.4942C17.2359 23.5212 17.2605 23.5481 17.2863 23.5751C17.4012 23.697 17.5172 23.8189 17.6355 23.9407C17.6613 23.9677 17.6883 23.9946 17.7141 24.0216C17.8195 24.1294 17.925 24.2372 18.0328 24.345L18.1008 24.413C18.225 24.5372 18.3504 24.6603 18.4781 24.7833C18.5074 24.8126 18.5379 24.8419 18.5672 24.87C18.6867 24.9849 18.8062 25.1009 18.9293 25.2157C18.9434 25.2286 18.9574 25.2427 18.9715 25.2567C19.1051 25.3821 19.2422 25.5075 19.3793 25.6341C19.4109 25.6634 19.4426 25.6927 19.4742 25.722C19.6148 25.8497 19.7555 25.9763 19.8984 26.1052C19.8996 26.1052 19.8996 26.1052 19.8996 26.1052C19.9207 26.1239 19.943 26.1427 19.9664 26.1614C20.0355 26.2212 20.107 26.2774 20.1773 26.3325L20.223 26.3689C20.3273 26.4521 20.4363 26.5388 20.5594 26.6267C20.652 26.6911 20.7469 26.7532 20.8488 26.8189L20.8746 26.8341C20.9766 26.8997 21.0832 26.9653 21.1945 27.0286C21.2918 27.0837 21.3914 27.1364 21.4805 27.1821C21.6152 27.2513 21.7477 27.3134 21.873 27.3685C21.9633 27.4083 22.0523 27.4458 22.1543 27.4868C22.282 27.536 22.4191 27.5853 22.575 27.6356L22.6277 27.6521C22.698 27.6755 22.7684 27.6978 22.8492 27.7212C23.0051 27.7646 23.1574 27.7997 23.2992 27.8313C23.3039 27.8325 23.3074 27.8325 23.3121 27.8337C23.3344 27.8384 23.3578 27.8442 23.3813 27.8489C23.4398 27.8618 23.4984 27.8747 23.5512 27.8841C23.7082 27.9134 23.8746 27.9356 24.0656 27.9567L24.1242 27.9638C24.1699 27.9696 24.2156 27.9755 24.2613 27.9802C24.266 27.9814 24.2695 27.9813 24.2742 27.9813C24.3738 27.9896 24.4687 27.9954 24.5613 28.0001C24.5789 28.0001 24.5977 28.0013 24.6152 28.0024C24.702 28.006 24.7863 28.0071 24.8684 28.0083H24.9902C24.9949 28.0083 24.9996 28.0071 25.0043 28.0071C25.234 28.0036 25.4695 27.9884 25.7285 27.9603C25.7766 27.9544 25.8234 27.9474 25.8715 27.9392C25.8891 27.9368 25.9078 27.9333 25.9266 27.931C26.0672 27.9122 26.2523 27.8841 26.4492 27.8431C26.5148 27.829 26.5781 27.8126 26.6426 27.7962L26.6883 27.7845C26.8137 27.754 26.9789 27.713 27.1512 27.6579C27.2227 27.6356 27.293 27.611 27.3633 27.5853L27.4184 27.5653C27.5707 27.5114 27.7055 27.4587 27.8262 27.4083C27.9223 27.3685 28.0172 27.3239 28.1121 27.2794C28.2363 27.2208 28.3605 27.1563 28.4906 27.0849C28.5855 27.0333 28.6793 26.9806 28.7777 26.922C28.882 26.8587 28.9887 26.7896 29.1258 26.6946L29.1855 26.6536C29.2594 26.6032 29.3332 26.5528 29.4047 26.4978C29.4375 26.4731 29.468 26.4485 29.4984 26.4239C29.5699 26.3677 29.6391 26.3114 29.7035 26.2563L29.782 26.1907C29.8465 26.1368 29.9098 26.0841 29.9695 26.029C29.9801 26.0196 29.9953 26.0067 30.0117 25.9927C30.0234 25.9833 30.0352 25.9728 30.048 25.9599C30.2285 25.7899 30.4043 25.6212 30.5777 25.4524C30.6281 25.4044 30.6762 25.3563 30.7254 25.3083C30.852 25.1841 30.9762 25.0599 31.1004 24.9356C31.1508 24.8841 31.2023 24.8325 31.2539 24.781C31.3957 24.6368 31.5352 24.4927 31.6734 24.3485C31.6957 24.3251 31.7191 24.3017 31.7414 24.2782C31.8996 24.1118 32.0531 23.9466 32.2043 23.7825C32.2477 23.7356 32.2898 23.6888 32.332 23.6419C32.4422 23.5212 32.5512 23.3993 32.6578 23.2798C32.7047 23.2259 32.7527 23.172 32.7996 23.1181C32.9098 22.9915 33.0188 22.8649 33.1254 22.7396C33.1582 22.7009 33.191 22.6622 33.2238 22.6235C33.232 22.613 33.2414 22.6036 33.2496 22.5931L37.9488 31.9927H11.8559ZM48.1641 30.4001C48.1641 31.2778 47.4492 31.9927 46.5715 31.9927H39.784L37.0816 26.5892L34.3699 21.1657C34.3875 21.1423 34.4027 21.1189 34.4203 21.0954C34.4648 21.0345 34.5082 20.9735 34.5516 20.9126C34.6277 20.8048 34.7039 20.697 34.7777 20.5903C34.8223 20.5259 34.8656 20.4626 34.9078 20.3981C34.9793 20.2927 35.0496 20.1872 35.1176 20.0806C35.1586 20.0196 35.1984 19.9575 35.2383 19.8954C35.3098 19.7829 35.3789 19.6704 35.4469 19.5579C35.4797 19.5052 35.5125 19.4513 35.5441 19.3985C35.6391 19.2403 35.7305 19.0833 35.8172 18.9263C35.8207 18.9204 35.8254 18.9134 35.8277 18.9075C35.9191 18.7446 36.0059 18.5829 36.0891 18.4212C36.116 18.3696 36.1395 18.3192 36.1652 18.2677C36.2215 18.1575 36.2766 18.0462 36.3293 17.936C36.3574 17.8774 36.3844 17.8177 36.4113 17.7579C36.4383 17.7005 36.4664 17.6431 36.4922 17.5856L48.1641 9.79502V30.4001Z" fill="#48446D"/>
<path d="M42.4956 0.820899C42.4956 0.840821 42.4944 0.859571 42.4921 0.879493C42.4897 0.913477 42.4862 0.947461 42.4792 0.980274C42.4687 1.03301 42.4534 1.08457 42.4323 1.13379C42.4124 1.18301 42.3866 1.23105 42.3573 1.27559C42.3269 1.32012 42.2929 1.3623 42.2554 1.40098C42.2167 1.43848 42.1757 1.47246 42.13 1.50176C42.0854 1.53223 42.0386 1.55684 41.9894 1.57793C41.939 1.59785 41.8874 1.61426 41.8358 1.62481C41.7819 1.63535 41.728 1.64121 41.6753 1.64121C41.6214 1.64121 41.5675 1.63535 41.5147 1.62481C41.462 1.61426 41.4105 1.59785 41.3612 1.57793C41.312 1.55684 41.264 1.53223 41.2194 1.50176C41.1749 1.47246 41.1327 1.43848 41.0952 1.40098C41.0577 1.3623 41.0226 1.32012 40.9933 1.27559C40.964 1.23105 40.9382 1.18301 40.9171 1.13379C40.8972 1.08457 40.8819 1.03301 40.8714 0.980274C40.8644 0.947461 40.8597 0.913477 40.8573 0.879493C40.8562 0.859571 40.855 0.840821 40.855 0.820899C40.855 0.800977 40.8562 0.782227 40.8573 0.762305C40.8597 0.728321 40.8644 0.694336 40.8714 0.660352C40.8819 0.607617 40.8972 0.556055 40.9171 0.506836C40.9382 0.457618 40.964 0.409571 40.9933 0.365039C41.0226 0.320508 41.0577 0.278321 41.0952 0.239649C41.1327 0.202149 41.1749 0.168164 41.2194 0.137695C41.264 0.108399 41.312 0.0837892 41.3612 0.0626955C41.4105 0.0427736 41.462 0.0263672 41.5147 0.0158203C41.6202 -0.00527344 41.7292 -0.00527344 41.8358 0.0158203C41.8874 0.0263672 41.939 0.0427736 41.9894 0.0626955C42.0386 0.0837892 42.0854 0.108399 42.13 0.137695C42.1757 0.168164 42.2167 0.202149 42.2554 0.239649C42.2929 0.278321 42.3269 0.320508 42.3573 0.365039C42.3866 0.409571 42.4124 0.457618 42.4323 0.506836C42.4534 0.556055 42.4687 0.607617 42.4792 0.660352C42.4862 0.694336 42.4897 0.728321 42.4921 0.762305C42.4944 0.782227 42.4956 0.800977 42.4956 0.820899Z" fill="#48446D"/>
</svg>
